<?xml version="1.0" encoding="UTF-8"?>
<svg width="160px" height="160px" viewBox="0 0 160 160" version="1.1" xmlns="http://www.w3.org/2000/svg" xmlns:xlink="http://www.w3.org/1999/xlink">
    <title>执行</title>
    <defs>
        <rect id="path-1" x="0" y="0" width="160" height="160"></rect>
        <linearGradient x1="1.38466734%" y1="48.6577181%" x2="98.6153327%" y2="48.6577181%" id="linearGradient-3">
            <stop stop-color="#83A6FF" offset="0%"></stop>
            <stop stop-color="#5A78FF" offset="100%"></stop>
        </linearGradient>
        <linearGradient x1="2.12765957%" y1="51.0067114%" x2="99.3583249%" y2="51.0067114%" id="linearGradient-4">
            <stop stop-color="#FF66A9" offset="0%"></stop>
            <stop stop-color="#F53689" offset="100%"></stop>
        </linearGradient>
        <path d="M108.073,27.4096766 C109.795,27.4096766 111.112,28.7266766 111.112,30.4486766 L111.112,97.0006766 C111.112,98.7226766 109.795,100.039677 108.073,100.039677 L5.965,100.039677 C4.242,100.039677 2.926,98.7226766 2.926,97.0006766 L2.926,30.4486766 C2.926,28.7266766 4.242,27.4096766 5.965,27.4096766 L108.073,27.4096766 Z" id="path-5"></path>
        <filter x="-35.6%" y="-37.9%" width="171.2%" height="206.0%" filterUnits="objectBoundingBox" id="filter-6">
            <feOffset dx="0" dy="11" in="SourceAlpha" result="shadowOffsetOuter1"></feOffset>
            <feGaussianBlur stdDeviation="11" in="shadowOffsetOuter1" result="shadowBlurOuter1"></feGaussianBlur>
            <feColorMatrix values="0 0 0 0 0.396078431   0 0 0 0 0.478431373   0 0 0 0 0.576470588  0 0 0 0.18 0" type="matrix" in="shadowBlurOuter1"></feColorMatrix>
        </filter>
        <linearGradient x1="-0.160834119%" y1="49.9985036%" x2="100%" y2="50%" id="linearGradient-7">
            <stop stop-color="#F2539D" offset="0%"></stop>
            <stop stop-color="#FFFFFF" offset="100%"></stop>
        </linearGradient>
        <path d="M81.634,45.6426766 L36.455,45.6426766 C35.544,45.6426766 34.834,44.9336766 34.834,44.0216766 L34.834,10.9986766 C34.834,10.0876766 35.544,9.37867661 36.455,9.37867661 L81.634,9.37867661 C82.546,9.37867661 83.255,10.0876766 83.255,10.9986766 L83.255,44.1236766 C83.255,44.9336766 82.546,45.6426766 81.634,45.6426766 Z" id="path-8"></path>
        <filter x="-79.5%" y="-75.8%" width="259.0%" height="312.3%" filterUnits="objectBoundingBox" id="filter-9">
            <feOffset dx="0" dy="11" in="SourceAlpha" result="shadowOffsetOuter1"></feOffset>
            <feGaussianBlur stdDeviation="11" in="shadowOffsetOuter1" result="shadowBlurOuter1"></feGaussianBlur>
            <feColorMatrix values="0 0 0 0 0.396078431   0 0 0 0 0.478431373   0 0 0 0 0.576470588  0 0 0 0.18 0" type="matrix" in="shadowBlurOuter1"></feColorMatrix>
        </filter>
        <linearGradient x1="-0.126023945%" y1="50.5703422%" x2="99.6597353%" y2="50.5703422%" id="linearGradient-10">
            <stop stop-color="#83A6FF" offset="0%"></stop>
            <stop stop-color="#5A78FF" offset="100%"></stop>
        </linearGradient>
        <linearGradient x1="-0.0901550667%" y1="50.3455084%" x2="100.036062%" y2="50.3455084%" id="linearGradient-11">
            <stop stop-color="#CED7E2" offset="0%"></stop>
            <stop stop-color="#F0F3F7" offset="100%"></stop>
        </linearGradient>
        <linearGradient x1="-0.248948408%" y1="50.3455084%" x2="100.437806%" y2="50.3455084%" id="linearGradient-12">
            <stop stop-color="#CED7E2" offset="0%"></stop>
            <stop stop-color="#F0F3F7" offset="100%"></stop>
        </linearGradient>
        <linearGradient x1="-0.055460041%" y1="55.5774926%" x2="100.141423%" y2="55.5774926%" id="linearGradient-13">
            <stop stop-color="#CED7E2" offset="0%"></stop>
            <stop stop-color="#F0F3F7" offset="100%"></stop>
        </linearGradient>
        <linearGradient x1="-0.055460041%" y1="50.7403751%" x2="100.141423%" y2="50.7403751%" id="linearGradient-14">
            <stop stop-color="#CED7E2" offset="0%"></stop>
            <stop stop-color="#F0F3F7" offset="100%"></stop>
        </linearGradient>
        <linearGradient x1="-0.055460041%" y1="55.9723593%" x2="100.141423%" y2="55.9723593%" id="linearGradient-15">
            <stop stop-color="#CED7E2" offset="0%"></stop>
            <stop stop-color="#F0F3F7" offset="100%"></stop>
        </linearGradient>
        <linearGradient x1="-0.0982287616%" y1="44.3621399%" x2="100.336587%" y2="44.3621399%" id="linearGradient-16">
            <stop stop-color="#CED7E2" offset="0%"></stop>
            <stop stop-color="#E6ECF5" offset="100%"></stop>
        </linearGradient>
        <linearGradient x1="-0.146243373%" y1="49.6296296%" x2="100.176711%" y2="49.6296296%" id="linearGradient-17">
            <stop stop-color="#CED7E2" offset="0%"></stop>
            <stop stop-color="#E6ECF5" offset="100%"></stop>
        </linearGradient>
        <linearGradient x1="23.2474147%" y1="9.12431108%" x2="78.8732829%" y2="92.4678506%" id="linearGradient-18">
            <stop stop-color="#83A6FF" offset="0%"></stop>
            <stop stop-color="#5A78FF" offset="100%"></stop>
        </linearGradient>
        <path d="M47.1648942,85.7236236 C50.436731,83.541196 54.3602421,82.4526766 58.5045686,82.4526766 C69.8415501,82.4526766 79,91.6107892 79,102.951329 C79,114.29187 69.8415501,123.452677 58.5045686,123.452677 C47.1648942,123.452677 38.0091372,114.29187 38.0091372,102.951329 C37.7910148,95.5364645 41.4964035,89.2128133 47.1648942,85.7236236 Z" id="path-19"></path>
        <filter x="-35.4%" y="-23.2%" width="170.7%" height="170.7%" filterUnits="objectBoundingBox" id="filter-20">
            <feOffset dx="0" dy="5" in="SourceAlpha" result="shadowOffsetOuter1"></feOffset>
            <feGaussianBlur stdDeviation="4" in="shadowOffsetOuter1" result="shadowBlurOuter1"></feGaussianBlur>
            <feColorMatrix values="0 0 0 0 0.11372549   0 0 0 0 0.294117647   0 0 0 0 1  0 0 0 0.22 0" type="matrix" in="shadowBlurOuter1"></feColorMatrix>
        </filter>
        <linearGradient x1="29.9565726%" y1="25.1613714%" x2="72.7701687%" y2="60.3782571%" id="linearGradient-21">
            <stop stop-color="#4F6AFF" offset="0%"></stop>
            <stop stop-color="#657EFF" stop-opacity="0" offset="100%"></stop>
        </linearGradient>
    </defs>
    <g id="执行" stroke="none" stroke-width="1" fill="none" fill-rule="evenodd">
        <g id="1" transform="translate(-90.000000, -79.000000)">
            <g id="执行" transform="translate(90.000000, 79.000000)">
                <mask id="mask-2" fill="white">
                    <use xlink:href="#path-1"></use>
                </mask>
                <use id="蒙版" fill-opacity="0" fill="#D8D8D8" xlink:href="#path-1"></use>
                <g id="编组-41" mask="url(#mask-2)">
                    <g transform="translate(23.000000, 16.547323)">
                        <path d="M3.85033317,18.7386133 C4.99433317,18.3586133 5.62033317,17.1186133 5.24833317,15.9686133 C4.87633317,14.8186133 3.64833317,14.1886133 2.50533317,14.5586133 C1.36133317,14.9386133 0.735333173,16.1686133 1.10733317,17.3286133 C1.47933317,18.4786133 2.70733317,19.1086133 3.85033317,18.7386133 Z" id="Path" stroke="none" fill="#EAEEF9" fill-rule="nonzero"></path>
                        <path d="M20.48,6.43267661 C21.298,6.43267661 21.961,5.77267661 21.961,4.94267661 C21.961,4.12267661 21.298,3.45267661 20.48,3.45267661 C19.663,3.45267661 19,4.12267661 19,4.94267661 C19,5.77267661 19.663,6.43267661 20.48,6.43267661 Z" id="Path" stroke="none" fill="url(#linearGradient-3)" fill-rule="nonzero"></path>
                        <path d="M96.48,126.432677 C97.298,126.432677 97.961,125.762677 97.961,124.942677 C97.961,124.112677 97.298,123.452677 96.48,123.452677 C95.663,123.452677 95,124.112677 95,124.942677 C95,125.762677 95.663,126.432677 96.48,126.432677 Z" id="Path" stroke="none" fill="url(#linearGradient-4)" fill-rule="nonzero"></path>
                        <path d="M98.0193332,17.2726766 C99.3683332,16.0326766 99.4623332,13.9226766 98.2293332,12.5626766 C96.9963332,11.2026766 94.9033332,11.1026766 93.5543332,12.3526766 C92.2053332,13.5926766 92.1113332,15.7026766 93.3443332,17.0626766 C94.5763332,18.4226766 96.6703332,18.5226766 98.0193332,17.2726766 Z" id="Path" stroke="none" fill="#EAEEF9" fill-rule="nonzero"></path>
                        <path d="M98.2633332,2.44267661 C98.8313332,1.92267661 98.8713332,1.03267661 98.3523332,0.462676613 C97.8333332,-0.117323387 96.9523332,-0.157323387 96.3843332,0.372676613 C95.8153332,0.892676613 95.7763332,1.78267661 96.2953332,2.35267661 C96.8143332,2.92267661 97.6953332,2.96267661 98.2633332,2.44267661 Z" id="Path" stroke="none" fill="#EAEEF9" fill-rule="nonzero"></path>
                        <path d="M57.049,120.551677 C88.557,120.551677 114.099,95.0096766 114.099,63.5016766 C114.099,31.9946766 88.557,6.45267661 57.049,6.45267661 C25.542,6.45267661 7.81597009e-14,31.9946766 7.81597009e-14,63.5016766 C7.81597009e-14,95.0096766 25.542,120.551677 57.049,120.551677 Z" id="Path" stroke="none" fill="#EAEEF9" fill-rule="nonzero"></path>
                        <g id="Path" stroke="none" fill="none" fill-rule="nonzero">
                            <use fill="black" fill-opacity="1" filter="url(#filter-6)" xlink:href="#path-5"></use>
                            <use fill="#FFFFFF" xlink:href="#path-5"></use>
                        </g>
                        <polygon id="Path" stroke="none" fill="#E6ECF5" fill-rule="nonzero" points="99.002 50.4526766 68 50.4526766 68 63.7026766 99.002 63.7026766"></polygon>
                        <polygon id="Path" stroke="none" fill="#E6ECF5" fill-rule="nonzero" points="99.002 70.2026766 68 70.2026766 68 83.4626766 99.002 83.4626766"></polygon>
                        <polygon id="Path" stroke="none" fill="#E9529E" fill-rule="nonzero" opacity="0.2" points="91.513 60.3726766 88.203 57.3026766 82.02 59.4026766 78.45 56.3326766 75.315 55.1926766 70.874 57.3026766 68.087 53.9626766 68.087 63.6226766 91.513 63.6226766"></polygon>
                        <polyline id="Path" stroke="#E9529E" stroke-width="2" fill="none" stroke-linejoin="round" points="68 54.4526766 70.787 57.7026766 75.228 55.6026766 78.363 56.8326766 81.933 59.9026766 88.116 57.7926766 91.338 60.9526766"></polyline>
                        <path d="M91.513,74.9426766 L88.203,76.8726766 L82.02,76.1726766 L78.45,78.6326766 L75.315,80.8226766 L70.874,77.3126766 L68.087,78.5426766 L68.087,83.7226766 L91.513,83.7226766 C91.513,83.7226766 91.513,74.8526766 91.513,74.9426766 Z" id="Path" stroke="none" fill="#7089FF" fill-rule="nonzero" opacity="0.2"></path>
                        <polyline id="Path" stroke="#7089FF" stroke-width="2" fill="none" stroke-linejoin="round" points="68.087 78.3626766 70.874 77.1426766 75.315 80.6526766 78.45 78.4526766 82.02 75.9926766 88.203 76.7026766 91.425 74.7726766"></polyline>
                        <path d="M111.112,30.4486766 L111.112,36.6276766 L2.926,36.6276766 L2.926,30.4486766 C2.926,28.7266766 4.242,27.4096766 5.965,27.4096766 L108.073,27.4096766 C109.795,27.4096766 111.112,28.7266766 111.112,30.4486766 Z" id="Path" stroke="none" fill="url(#linearGradient-7)" fill-rule="nonzero"></path>
                        <path d="M7.788,33.2846766 C8.515,33.2846766 9.105,32.6946766 9.105,31.9676766 C9.105,31.2406766 8.515,30.6506766 7.788,30.6506766 C7.061,30.6506766 6.471,31.2406766 6.471,31.9676766 C6.471,32.6946766 7.061,33.2846766 7.788,33.2846766 Z" id="Path" stroke="none" fill="#FFFFFF" fill-rule="nonzero" opacity="0.8"></path>
                        <path d="M11.536,33.2846766 C12.263,33.2846766 12.853,32.6946766 12.853,31.9676766 C12.853,31.2406766 12.263,30.6506766 11.536,30.6506766 C10.809,30.6506766 10.219,31.2406766 10.219,31.9676766 C10.219,32.6946766 10.809,33.2846766 11.536,33.2846766 Z" id="Path" stroke="none" fill="#FFFFFF" fill-rule="nonzero" opacity="0.5"></path>
                        <path d="M15.284,33.2846766 C16.011,33.2846766 16.601,32.6946766 16.601,31.9676766 C16.601,31.2406766 16.011,30.6506766 15.284,30.6506766 C14.557,30.6506766 13.967,31.2406766 13.967,31.9676766 C13.967,32.6946766 14.557,33.2846766 15.284,33.2846766 Z" id="Path" stroke="none" fill="#FFFFFF" fill-rule="nonzero" opacity="0.2"></path>
                        <g id="Path" stroke="none" fill="none" fill-rule="nonzero">
                            <use fill="black" fill-opacity="1" filter="url(#filter-9)" xlink:href="#path-8"></use>
                            <use fill="#FFFFFF" xlink:href="#path-8"></use>
                        </g>
                        <path d="M75.563,17.9346766 L41.943,17.9346766 C41.457,17.9346766 41.052,17.5296766 41.052,17.0436766 L41.052,16.3966766 C41.052,15.9106766 41.457,15.5056766 41.943,15.5056766 L75.563,15.5056766 C76.048,15.5056766 76.453,15.9106766 76.453,16.3966766 L76.453,17.0436766 C76.534,17.5296766 76.129,17.9346766 75.563,17.9346766 Z" id="Path" stroke="none" fill="#FFFFFF" fill-rule="nonzero"></path>
                        <path d="M75.32,15.5056766 C75.967,15.5056766 76.534,16.0716766 76.534,16.7196766 C76.534,17.3666766 75.967,17.9336766 75.32,17.9336766 L42.267,17.9336766 C41.619,17.9336766 41.052,17.3666766 41.052,16.7196766 C41.052,16.0716766 41.619,15.5056766 42.267,15.5056766 L75.32,15.5056766 Z M75.32,14.4526766 L42.267,14.4526766 C40.971,14.4526766 40,15.5056766 40,16.7196766 C40,18.0146766 41.052,18.9856766 42.267,18.9856766 L75.32,18.9856766 C76.615,18.9856766 77.587,17.9336766 77.587,16.7196766 C77.587,15.5056766 76.534,14.4526766 75.32,14.4526766 Z" id="Shape" stroke="none" fill="#E6EAFF" fill-rule="nonzero"></path>
                        <path d="M65.473,17.2866766 L42.348,17.2866766 C42.105,17.2866766 41.943,17.1246766 41.943,16.8826766 L41.943,16.6396766 C41.943,16.3966766 42.105,16.2346766 42.348,16.2346766 L65.473,16.2346766 C65.716,16.2346766 65.878,16.3966766 65.878,16.6396766 L65.878,16.8826766 C65.878,17.1246766 65.716,17.2866766 65.473,17.2866766 Z" id="Path" stroke="none" fill="url(#linearGradient-10)" fill-rule="nonzero"></path>
                        <path d="M62.793,23.5596766 L41.621,23.5596766 C41.317,23.5596766 41.115,23.3576766 41.115,23.0536766 C41.115,22.7496766 41.317,22.5466766 41.621,22.5466766 L62.793,22.5466766 C63.097,22.5466766 63.299,22.7496766 63.299,23.0536766 C63.299,23.3576766 63.097,23.5596766 62.793,23.5596766 Z" id="Path" stroke="none" fill="url(#linearGradient-11)" fill-rule="nonzero"></path>
                        <path d="M76.67,23.5596766 L66.034,23.5596766 C65.73,23.5596766 65.528,23.3576766 65.528,23.0536766 C65.528,22.7496766 65.73,22.5466766 66.034,22.5466766 L76.67,22.5466766 C76.974,22.5466766 77.177,22.7496766 77.177,23.0536766 C77.177,23.3576766 76.974,23.5596766 76.67,23.5596766 Z" id="Path" stroke="none" fill="url(#linearGradient-12)" fill-rule="nonzero"></path>
                        <path d="M76.67,27.3076766 L62.793,27.3076766 L61.881,27.3076766 L41.621,27.3076766 C41.317,27.3076766 41.115,27.5106766 41.115,27.8146766 C41.115,28.1186766 41.317,28.3206766 41.621,28.3206766 L61.881,28.3206766 L62.793,28.3206766 L76.67,28.3206766 C76.974,28.3206766 77.177,28.1186766 77.177,27.8146766 C77.177,27.6116766 76.974,27.3076766 76.67,27.3076766 Z" id="Path" stroke="none" fill="url(#linearGradient-13)" fill-rule="nonzero"></path>
                        <path d="M76.67,32.1706766 L62.793,32.1706766 L61.881,32.1706766 L41.621,32.1706766 C41.317,32.1706766 41.115,32.3726766 41.115,32.6766766 C41.115,32.9806766 41.317,33.1836766 41.621,33.1836766 L61.881,33.1836766 L62.793,33.1836766 L76.67,33.1836766 C76.974,33.1836766 77.177,32.9806766 77.177,32.6766766 C77.177,32.3726766 76.974,32.1706766 76.67,32.1706766 Z" id="Path" stroke="none" fill="url(#linearGradient-14)" fill-rule="nonzero"></path>
                        <path d="M76.67,36.9316766 L62.793,36.9316766 L61.881,36.9316766 L41.621,36.9316766 C41.317,36.9316766 41.115,37.1336766 41.115,37.4376766 C41.115,37.7416766 41.317,37.9446766 41.621,37.9446766 L61.881,37.9446766 L62.793,37.9446766 L76.67,37.9446766 C76.974,37.9446766 77.177,37.7416766 77.177,37.4376766 C77.177,37.1336766 76.974,36.9316766 76.67,36.9316766 Z" id="Path" stroke="none" fill="url(#linearGradient-15)" fill-rule="nonzero"></path>
                        <path d="M116.278,103.382677 L83.457,103.382677 C82.546,103.382677 81.735,102.673677 81.735,101.660677 L81.735,90.7206766 C81.735,89.8086766 82.444,88.9986766 83.457,88.9986766 L116.278,88.9986766 C117.19,88.9986766 118,89.7076766 118,90.7206766 L118,101.660677 C117.899,102.673677 117.19,103.382677 116.278,103.382677 Z" id="Path" stroke="none" fill="#FFFFFF" fill-rule="nonzero"></path>
                        <path d="M111.72,94.6706766 L88.421,94.6706766 C88.016,94.6706766 87.813,94.3676766 87.813,94.0636766 C87.813,93.6576766 88.117,93.4556766 88.421,93.4556766 L111.618,93.4556766 C112.023,93.4556766 112.226,93.7596766 112.226,94.0636766 C112.327,94.3676766 112.023,94.6706766 111.72,94.6706766 Z" id="Path" stroke="none" fill="url(#linearGradient-16)" fill-rule="nonzero"></path>
                        <path d="M103.616,99.4316766 L88.421,99.4316766 C88.016,99.4316766 87.813,99.1286766 87.813,98.8246766 C87.813,98.4186766 88.117,98.2166766 88.421,98.2166766 L103.616,98.2166766 C104.021,98.2166766 104.224,98.5206766 104.224,98.8246766 C104.224,99.1286766 103.92,99.4316766 103.616,99.4316766 Z" id="Path" stroke="none" fill="url(#linearGradient-17)" fill-rule="nonzero"></path>
                        <path d="M57.323,85.8576766 L11.738,85.8576766 C10.624,85.8576766 9.713,84.9466766 9.713,83.8326766 L9.713,52.4296766 C9.713,51.3156766 10.624,50.4036766 11.738,50.4036766 L57.323,50.4036766 C58.437,50.4036766 59.348,51.3156766 59.348,52.4296766 L59.348,83.8326766 C59.348,84.9466766 58.437,85.8576766 57.323,85.8576766 Z" id="Path" stroke="none" fill="#E6ECF5" fill-rule="nonzero"></path>
                        <polygon id="Path" stroke="none" fill="#CED7E2" fill-rule="nonzero" points="35.341 74.4966766 18.931 74.4966766 27.136 65.1776766"></polygon>
                        <polygon id="Path" stroke="none" fill="#FFFFFF" fill-rule="nonzero" points="49.016 74.4966766 25.312 74.4966766 37.164 61.0246766"></polygon>
                        <path d="M25.11,61.7336766 C26.844,61.7336766 28.25,60.3276766 28.25,58.5926766 C28.25,56.8586766 26.844,55.4526766 25.11,55.4526766 C23.375,55.4526766 21.97,56.8586766 21.97,58.5926766 C21.97,60.3276766 23.375,61.7336766 25.11,61.7336766 Z" id="Path" stroke="none" fill="#CED7E2" fill-rule="nonzero"></path>
                        <g id="Path" stroke="none" fill="none" fill-rule="nonzero">
                            <use fill="black" fill-opacity="1" filter="url(#filter-20)" xlink:href="#path-19"></use>
                            <use fill="url(#linearGradient-18)" xlink:href="#path-19"></use>
                        </g>
                        <path d="M70.948,104.002677 C70.774,104.792677 70.513,105.582677 70.251,106.282677 C68.51,110.852677 64.765,114.362677 60.15,115.942677 C59.802,116.032677 59.366,116.202677 59.018,116.292677 L47,104.092677 L51.354,100.142677 L56.318,103.472677 L61.456,98.7326766 L62.327,97.9426766 L63.459,96.4526766 L70.948,104.002677 Z" id="Path" stroke="none" fill="url(#linearGradient-21)" fill-rule="nonzero"></path>
                        <path d="M59.392961,91.8974538 L65.5083667,98.1188441 C66.1638778,98.7860099 66.1638778,100.120342 65.5083667,100.787508 C64.8528556,101.454673 63.5418335,101.454673 62.8863224,100.787508 L60.0484721,98.1188441 L60.0484721,111.453925 C60.0484721,112.565868 59.1744573,113.452677 58.0819389,113.452677 C56.9894204,113.452677 56.1154057,112.565868 56.1154057,111.453925 L56.1154057,98.1188441 L53.2775553,101.009896 C52.6220443,101.677062 51.3110221,101.677062 50.6555111,101.009896 C50.2185037,100.565119 50,100.120342 50,99.6755644 C50,99.2307872 50.2185037,98.5636213 50.6555111,98.3412327 L56.7709168,92.1198425 C57.2079241,91.6750652 57.6449315,91.4526766 58.0819389,91.4526766 C58.5189463,91.4526766 58.9559536,91.6750652 59.392961,91.8974538 Z" id="Path" stroke="none" fill="#FFFFFF" fill-rule="nonzero" transform="translate(58.000000, 102.452677) rotate(90.000000) translate(-58.000000, -102.452677) "></path>
                    </g>
                </g>
            </g>
        </g>
    </g>
</svg>