<?xml version="1.0" encoding="UTF-8"?>
<svg width="160px" height="160px" viewBox="0 0 160 160" version="1.1" xmlns="http://www.w3.org/2000/svg" xmlns:xlink="http://www.w3.org/1999/xlink">
    <title>33</title>
    <defs>
        <rect id="path-1" x="0" y="0" width="160" height="160"></rect>
        <linearGradient x1="2.5323741%" y1="49.2795389%" x2="99.5395683%" y2="49.2795389%" id="linearGradient-3">
            <stop stop-color="#FF66A9" offset="0%"></stop>
            <stop stop-color="#F53689" offset="100%"></stop>
        </linearGradient>
        <linearGradient x1="2.50359712%" y1="49.8559078%" x2="99.4820144%" y2="49.8559078%" id="linearGradient-4">
            <stop stop-color="#FF66A9" offset="0%"></stop>
            <stop stop-color="#F53689" offset="100%"></stop>
        </linearGradient>
        <path d="M101.177516,28.5882 L102.098656,103.4348 C102.098656,105.9682 100.026356,108.0352 97.4950763,108.0352 L24.4091363,108.0352 C21.8767963,108.0352 19.8055563,105.9682 19.8055563,103.4348 L19.8055563,7.2292 C19.8055563,4.7064 21.8767963,2.6394 24.4091363,2.6394 L77.3529563,2.6394 L101.177516,28.5882 Z" id="path-5"></path>
        <filter x="-49.2%" y="-27.0%" width="198.4%" height="176.9%" filterUnits="objectBoundingBox" id="filter-6">
            <feOffset dx="0" dy="12" in="SourceAlpha" result="shadowOffsetOuter1"></feOffset>
            <feGaussianBlur stdDeviation="11.5" in="shadowOffsetOuter1" result="shadowBlurOuter1"></feGaussianBlur>
            <feColorMatrix values="0 0 0 0 0.396078431   0 0 0 0 0.478431373   0 0 0 0 0.576470588  0 0 0 0.18 0" type="matrix" in="shadowBlurOuter1"></feColorMatrix>
        </filter>
        <linearGradient x1="23.2474147%" y1="9.25195308%" x2="78.8732829%" y2="92.3352368%" id="linearGradient-7">
            <stop stop-color="#83A6FF" offset="0%"></stop>
            <stop stop-color="#5A78FF" offset="100%"></stop>
        </linearGradient>
        <path d="M112.128376,102.078 C109.826056,113.3246 98.6621363,120.6704 87.3826763,118.2642 C76.1032163,115.964 68.7372763,104.834 71.1540763,93.5768 C73.5708763,82.3302 84.6203163,74.9844 95.8997763,77.3906 C99.9277763,78.1962 103.610216,80.1466 106.488116,83.1358 C111.437256,88.0648 113.509556,95.188 112.128376,102.078 Z" id="path-8"></path>
        <filter x="-34.6%" y="-22.7%" width="169.3%" height="169.4%" filterUnits="objectBoundingBox" id="filter-9">
            <feOffset dx="0" dy="5" in="SourceAlpha" result="shadowOffsetOuter1"></feOffset>
            <feGaussianBlur stdDeviation="4" in="shadowOffsetOuter1" result="shadowBlurOuter1"></feGaussianBlur>
            <feColorMatrix values="0 0 0 0 0.11372549   0 0 0 0 0.294117647   0 0 0 0 1  0 0 0 0.22 0" type="matrix" in="shadowBlurOuter1"></feColorMatrix>
        </filter>
        <linearGradient x1="30.6358613%" y1="36.5973989%" x2="63.1256507%" y2="59.4093733%" id="linearGradient-10">
            <stop stop-color="#4F6AFF" offset="0%"></stop>
            <stop stop-color="#657EFF" stop-opacity="0" offset="100%"></stop>
        </linearGradient>
        <linearGradient x1="44.1587337%" y1="104.264264%" x2="44.1587337%" y2="0%" id="linearGradient-11">
            <stop stop-color="#C2D1FF" offset="0%"></stop>
            <stop stop-color="#FFFFFF" offset="100%"></stop>
        </linearGradient>
        <linearGradient x1="-0.33423338%" y1="50.1098901%" x2="99.871561%" y2="50.1098901%" id="linearGradient-12">
            <stop stop-color="#FF66A9" offset="0%"></stop>
            <stop stop-color="#F53689" offset="100%"></stop>
        </linearGradient>
    </defs>
    <g id="脚本" stroke="none" stroke-width="1" fill="none" fill-rule="evenodd">
        <g id="0.07" transform="translate(-90.000000, -79.000000)">
            <g id="33" transform="translate(90.000000, 79.000000)">
                <mask id="mask-2" fill="white">
                    <use xlink:href="#path-1"></use>
                </mask>
                <use id="蒙版" fill="#D8D8D8" opacity="0" xlink:href="#path-1"></use>
                <g mask="url(#mask-2)" fill-rule="nonzero">
                    <g transform="translate(18.000000, 21.000000)">
                        <path d="M59.9975763,114.1196 C91.5898163,114.1196 117.200476,88.5736 117.200476,57.0598 C117.200476,25.546 91.5898163,1.05444542e-13 59.9975763,1.05444542e-13 C28.4053363,1.05444542e-13 2.79467625,25.546 2.79467625,57.0598 C2.79467625,88.5736 28.4053363,114.1196 59.9975763,114.1196 Z" id="Path" fill="#EAEEF9"></path>
                        <path d="M3.76775625,23.6274 C5.27825625,23.1398 6.10505625,21.518 5.61427625,20.0128 C5.12349625,18.5076 3.49957625,17.6808 1.98907625,18.1684 C0.477516254,18.656 -0.349283746,20.2778 0.141496254,21.783 C0.632276254,23.2882 2.25619625,24.115 3.76775625,23.6274 Z" id="Path" fill="#EAEEF9"></path>
                        <path d="M10.0482563,14.257 C11.0764563,13.9284 11.6382563,12.826 11.3043563,11.7978 C10.9704563,10.7802 9.86699625,10.2184 8.83879625,10.547 C7.81165625,10.8862 7.24879625,11.9886 7.58269625,13.0062 C7.91659625,14.0344 9.02111625,14.5962 10.0482563,14.257 Z" id="Path" fill="#EAEEF9"></path>
                        <path d="M123.223396,42.7392 C125.006316,41.1174 125.131396,38.3508 123.502176,36.57 C121.871896,34.7998 119.105296,34.6726 117.322376,36.2944 C115.539456,37.9268 115.415436,40.6828 117.044656,42.4636 C118.673876,44.2444 121.440476,44.361 123.223396,42.7392 Z" id="Path" fill="#EAEEF9"></path>
                        <path d="M123.631496,23.267 C124.381976,22.578 124.434976,21.4226 123.749156,20.67 C123.062276,19.9174 121.898396,19.8644 121.146856,20.5534 C120.396376,21.2424 120.343376,22.3978 121.030256,23.1504 C121.716076,23.8924 122.881016,23.9454 123.631496,23.267 Z" id="Path" fill="#EAEEF9"></path>
                        <path d="M100.027416,7.1232 C101.043956,7.1232 101.868636,6.2964 101.868636,5.2788 C101.868636,4.2718 101.043956,3.445 100.027416,3.445 C99.0098163,3.445 98.1851363,4.2718 98.1851363,5.2788 C98.1851363,6.2964 99.0098163,7.1232 100.027416,7.1232 Z" id="Path" fill="url(#linearGradient-3)"></path>
                        <path d="M7.72049625,86.1038 C8.73703625,86.1038 9.56171625,85.277 9.56171625,84.27 C9.56171625,83.2524 8.73703625,82.4256 7.72049625,82.4256 C6.70289625,82.4256 5.87821625,83.2524 5.87821625,84.27 C5.87821625,85.277 6.70289625,86.1038 7.72049625,86.1038 Z" id="Path" fill="url(#linearGradient-4)"></path>
                        <g id="Path" fill="none">
                            <use fill="black" fill-opacity="1" filter="url(#filter-6)" xlink:href="#path-5"></use>
                            <use fill="#FFFFFF" xlink:href="#path-5"></use>
                        </g>
                        <path d="M88.5168763,74.9632 L44.7812763,74.9632 C44.2056963,74.9632 43.7445963,74.3908 43.7445963,73.7018 C43.7445963,73.0128 44.2056963,72.4404 44.7812763,72.4404 L88.5168763,72.4404 C89.0924563,72.4404 89.5535563,73.0128 89.5535563,73.7018 C89.5535563,74.3908 89.0924563,74.9632 88.5168763,74.9632 Z" id="Path" fill="#E3EAF2"></path>
                        <path d="M39.3710363,74.9632 L31.6595363,74.9632 C31.0850163,74.9632 30.6239163,74.3908 30.6239163,73.7018 C30.6239163,73.0128 31.0850163,72.4404 31.6595363,72.4404 L39.3710363,72.4404 C39.9466163,72.4404 40.4077163,73.0128 40.4077163,73.7018 C40.4077163,74.3908 39.9466163,74.9632 39.3710363,74.9632 Z" id="Path" fill="#CED7E2"></path>
                        <path d="M88.4023963,65.7836 L68.8358563,65.7836 C68.2602763,65.7836 67.8002363,65.2112 67.8002363,64.5222 C67.8002363,63.8332 68.2602763,63.2608 68.8358563,63.2608 L88.4023963,63.2608 C88.9779763,63.2608 89.4380163,63.8332 89.4380163,64.5222 C89.4380163,65.2112 88.9779763,65.7836 88.4023963,65.7836 Z" id="Path" fill="#CED7E2"></path>
                        <path d="M60.5487763,65.7836 L32.0050963,65.7836 C31.4295163,65.7836 30.9694763,65.2112 30.9694763,64.5222 C30.9694763,63.8332 31.4295163,63.2608 32.0050963,63.2608 L60.5487763,63.2608 C61.1243563,63.2608 61.5843963,63.8332 61.5843963,64.5222 C61.6999363,65.2112 61.1243563,65.7836 60.5487763,65.7836 Z" id="Path" fill="#E3EAF2"></path>
                        <path d="M81.3809563,38.1176 L89.2079963,38.1176 C89.7835763,38.1176 90.2436163,37.5452 90.2436163,36.8562 C90.2436163,36.1672 89.7835763,35.5948 89.2079963,35.5948 L81.3809563,35.5948 C80.8053763,35.5948 80.3453363,36.1672 80.3453363,36.8562 C80.3453363,37.6512 80.8053763,38.1176 81.3809563,38.1176 Z" id="Path" fill="#E3EAF2"></path>
                        <path d="M88.7468963,56.4874 L81.1509363,56.4874 C80.5753563,56.4874 80.1153163,55.915 80.1153163,55.226 C80.1153163,54.537 80.5753563,53.954 81.1509363,53.954 L88.7468963,53.954 C89.3224763,53.954 89.7835763,54.537 89.7835763,55.226 C89.7835763,55.915 89.3224763,56.4874 88.7468963,56.4874 Z" id="Path" fill="#E3EAF2"></path>
                        <path d="M74.1305563,56.4874 L53.7584163,56.4874 C53.1828363,56.4874 52.7227963,55.915 52.7227963,55.226 C52.7227963,54.537 53.1828363,53.954 53.7584163,53.954 L74.2450363,53.954 C74.8206163,53.954 75.2806563,54.537 75.2806563,55.226 C75.2806563,55.915 74.8206163,56.4874 74.1305563,56.4874 Z" id="Path" fill="#CED7E2"></path>
                        <path d="M55.3696163,93.1104 L52.7227963,93.1104 C52.1472163,93.1104 51.6861163,92.538 51.6861163,91.849 C51.6861163,91.16 52.1472163,90.577 52.7227963,90.577 L55.3696163,90.577 C55.9451963,90.577 56.4052363,91.16 56.4052363,91.849 C56.4052363,92.644 55.9451963,93.1104 55.3696163,93.1104 Z" id="Path" fill="#CED7E2"></path>
                        <path d="M48.0036763,93.1104 L32.4651363,93.1104 C31.8906163,93.1104 31.4295163,92.538 31.4295163,91.849 C31.4295163,91.16 31.8906163,90.577 32.4651363,90.577 L48.0036763,90.577 C48.5792563,90.577 49.0392963,91.16 49.0392963,91.849 C49.0392963,92.644 48.5792563,93.1104 48.0036763,93.1104 Z" id="Path" fill="#E3EAF2"></path>
                        <path d="M89.0924563,47.2972 L73.7849963,47.2972 C73.2094163,47.2972 72.7493763,46.7248 72.7493763,46.0358 C72.7493763,45.3468 73.2094163,44.7744 73.7849963,44.7744 L89.2079963,44.7744 C89.7835763,44.7744 90.2436163,45.3468 90.2436163,46.0358 C90.2436163,46.7248 89.7835763,47.2972 89.0924563,47.2972 Z" id="Path" fill="#CED7E2"></path>
                        <path d="M53.6428763,38.1176 L74.3605763,38.1176 C74.9361563,38.1176 75.3961963,37.5452 75.3961963,36.8562 C75.3961963,36.1672 74.9361563,35.5948 74.3605763,35.5948 L53.6428763,35.5948 C53.0672963,35.5948 52.6072563,36.1672 52.6072563,36.8562 C52.6072563,37.6512 53.0672963,38.1176 53.6428763,38.1176 Z" id="Path" fill="#CED7E2"></path>
                        <path d="M67.3391363,47.2972 L53.5283963,47.2972 C52.9528163,47.2972 52.4927763,46.7248 52.4927763,46.0358 C52.4927763,45.3468 52.9528163,44.7744 53.5283963,44.7744 L67.3391363,44.7744 C67.9147163,44.7744 68.3758163,45.3468 68.3758163,46.0358 C68.4902963,46.7248 68.0302563,47.2972 67.3391363,47.2972 Z" id="Path" fill="#E3EAF2"></path>
                        <path d="M68.1457963,18.3698 L33.1562563,18.3698 C32.3506563,18.3698 31.6595363,17.6808 31.6595363,16.8752 C31.6595363,16.0696 32.3506563,15.3806 33.1562563,15.3806 L68.1457963,15.3806 C68.9513963,15.3806 69.6414563,16.0696 69.6414563,16.8752 C69.6414563,17.6808 68.9513963,18.3698 68.1457963,18.3698 Z" id="Path" fill="#CED7E2"></path>
                        <path d="M46.6224963,26.7544 L33.1562563,26.7544 C32.3506563,26.7544 31.6595363,26.0654 31.6595363,25.2598 C31.6595363,24.4542 32.3506563,23.7652 33.1562563,23.7652 L46.5069563,23.7652 C47.3125563,23.7652 48.0036763,24.4542 48.0036763,25.2598 C48.0036763,26.0654 47.3125563,26.7544 46.6224963,26.7544 Z" id="Path" fill="#CED7E2"></path>
                        <path d="M77.3529563,2.6394 L77.3529563,23.3094 C77.3529563,26.1714 79.8852963,28.5882 82.7621363,28.5882 L101.177516,28.5882" id="Path" fill="#EAEFF4"></path>
                        <g id="Path" fill="none">
                            <use fill="black" fill-opacity="1" filter="url(#filter-9)" xlink:href="#path-8"></use>
                            <use fill="url(#linearGradient-7)" xlink:href="#path-8"></use>
                        </g>
                        <path d="M109.220655,100.700069 C109.220655,101.505669 110.155716,102.432525 110.040176,103.238125 C109.925696,103.810525 108.407439,105.4276 108.177419,106 C106.796239,113.4624 106.02438,112.326728 99.004,113.471528 C97.62282,113.704728 95.0962125,114.2362 93.7150325,114.1196 L77.38,97.8274 L85.2944763,91.8437 L90.2436163,95.7199894 L95.1927563,86.92 L109.220655,100.700069 Z" id="Path" fill="url(#linearGradient-10)"></path>
                        <path d="M95.2940538,86.92 L89.7821615,108.12 L87.0259462,108.12 L92.5381077,86.92 L95.2940538,86.92 Z M84.2006155,91.0284633 L86.1493552,92.902087 L81.2776945,97.5867155 L86.1497858,102.271396 L84.2006155,104.144968 L77.38,97.5867155 L84.2006155,91.0284633 Z M98.1189538,91.0284633 L104.94,97.5867155 L98.1193845,104.144968 L96.1708602,102.271396 L101.042521,97.5867155 L96.1704295,92.902087 L98.1189538,91.0284633 Z" id="形状结合" fill="url(#linearGradient-11)"></path>
                        <path d="M46.7380363,56.604 C46.5069563,56.604 46.2769363,56.4874 46.1624563,56.1376 L44.8957563,52.3534 L36.1486363,52.3534 L34.8829963,56.1376 C34.7674563,56.3708 34.5374363,56.604 34.3074163,56.604 L32.0050963,56.604 C31.8906163,56.604 31.7750763,56.4874 31.6605963,56.4874 C31.5450563,56.3708 31.5450563,56.2542 31.6605963,56.1376 L38.3354163,38.001 C38.4509563,37.5452 38.9109963,37.312 39.2565563,37.312 L42.1333963,37.312 C42.5944963,37.312 42.9389963,37.5452 43.0545363,38.001 L49.7304163,56.4874 L49.6148763,56.604 L46.7380363,56.604 Z M37.1842563,49.5974 L43.8601363,49.5974 L40.5221963,39.8348 L37.1842563,49.5974 Z" id="Shape" fill="url(#linearGradient-12)"></path>
                    </g>
                </g>
            </g>
        </g>
    </g>
</svg>