<?xml version="1.0" encoding="UTF-8"?>
<svg width="160px" height="160px" viewBox="0 0 160 160" version="1.1" xmlns="http://www.w3.org/2000/svg" xmlns:xlink="http://www.w3.org/1999/xlink">
    <title>Group 21</title>
    <defs>
        <rect id="path-1" x="0" y="0" width="160" height="160"></rect>
        <linearGradient x1="49.9673025%" y1="-2.31618957%" x2="49.9673025%" y2="101.080888%" id="linearGradient-3">
            <stop stop-color="#FDFEFF" offset="0%"></stop>
            <stop stop-color="#ECF0F5" offset="99.64%"></stop>
        </linearGradient>
        <path d="M97.092,78.273 L31.266,78.273 C28.881,78.273 27.027,76.428 27.027,74.151 L27.027,27.261 C27.027,24.984 28.881,23.139 31.266,23.139 L97.092,23.139 C99.486,23.139 101.331,24.984 101.331,27.261 L101.331,74.151 C101.223,76.428 99.378,78.273 97.092,78.273 Z" id="path-4"></path>
        <filter x="-42.4%" y="-40.8%" width="184.8%" height="214.3%" filterUnits="objectBoundingBox" id="filter-5">
            <feOffset dx="0" dy="9" in="SourceAlpha" result="shadowOffsetOuter1"></feOffset>
            <feGaussianBlur stdDeviation="9" in="shadowOffsetOuter1" result="shadowBlurOuter1"></feGaussianBlur>
            <feColorMatrix values="0 0 0 0 0.396078431   0 0 0 0 0.478431373   0 0 0 0 0.576470588  0 0 0 0.18 0" type="matrix" in="shadowBlurOuter1"></feColorMatrix>
        </filter>
        <linearGradient x1="0.0979645725%" y1="50.2242152%" x2="100.462669%" y2="50.2242152%" id="linearGradient-6">
            <stop stop-color="#83A6FF" offset="0%"></stop>
            <stop stop-color="#5A78FF" offset="100%"></stop>
        </linearGradient>
        <linearGradient x1="0.0369386305%" y1="48.4304933%" x2="100.399198%" y2="48.4304933%" id="linearGradient-7">
            <stop stop-color="#FF66A9" offset="0%"></stop>
            <stop stop-color="#F53689" offset="100%"></stop>
        </linearGradient>
        <linearGradient x1="0.0369386305%" y1="48.4304933%" x2="100.399198%" y2="48.4304933%" id="linearGradient-8">
            <stop stop-color="#FF66A9" offset="0%"></stop>
            <stop stop-color="#F53689" offset="100%"></stop>
        </linearGradient>
        <linearGradient x1="0.0979645725%" y1="50.2242152%" x2="100.462669%" y2="50.2242152%" id="linearGradient-9">
            <stop stop-color="#83A6FF" offset="0%"></stop>
            <stop stop-color="#5A78FF" offset="100%"></stop>
        </linearGradient>
        <linearGradient x1="0.0979645725%" y1="50.2242152%" x2="100.462669%" y2="50.2242152%" id="linearGradient-10">
            <stop stop-color="#83A6FF" offset="0%"></stop>
            <stop stop-color="#5A78FF" offset="100%"></stop>
        </linearGradient>
        <linearGradient x1="49.9673025%" y1="-2.31618957%" x2="49.9673025%" y2="101.080888%" id="linearGradient-11">
            <stop stop-color="#FDFEFF" offset="0%"></stop>
            <stop stop-color="#ECF0F5" offset="99.64%"></stop>
        </linearGradient>
        <path d="M123.637331,71.217 L83.6271966,71.217 C82.1612659,71.217 81.0862501,70.0174936 81.0862501,68.6280654 L81.0862501,25.2059346 C81.0862501,23.8165064 82.2589946,22.617 83.6271966,22.617 L123.539603,22.617 C125.005533,22.617 126.080549,23.8165064 126.080549,25.2059346 L126.080549,68.6280654 C126.178278,70.1174525 125.005533,71.217 123.637331,71.217 Z" id="path-12"></path>
        <filter x="-77.8%" y="-51.4%" width="255.6%" height="244.0%" filterUnits="objectBoundingBox" id="filter-13">
            <feOffset dx="0" dy="10" in="SourceAlpha" result="shadowOffsetOuter1"></feOffset>
            <feGaussianBlur stdDeviation="10" in="shadowOffsetOuter1" result="shadowBlurOuter1"></feGaussianBlur>
            <feColorMatrix values="0 0 0 0 0.396078431   0 0 0 0 0.478431373   0 0 0 0 0.576470588  0 0 0 0.17 0" type="matrix" in="shadowBlurOuter1"></feColorMatrix>
        </filter>
    </defs>
    <g id="mock" stroke="none" stroke-width="1" fill="none" fill-rule="evenodd">
        <g id="0.02" transform="translate(-70.000000, -79.000000)">
            <g id="Group-21" transform="translate(70.000000, 79.000000)">
                <mask id="mask-2" fill="white">
                    <use xlink:href="#path-1"></use>
                </mask>
                <use id="蒙版" fill="#D8D8D8" opacity="0" xlink:href="#path-1"></use>
                <g mask="url(#mask-2)">
                    <g transform="translate(11.000000, 26.000000)">
                        <path d="M69.939,107.802 C99.666,107.802 123.732,83.646 123.732,53.856 C123.732,24.057 99.666,2.04636308e-13 69.939,2.04636308e-13 C40.293,2.04636308e-13 16.146,24.147 16.146,53.937 C16.146,83.736 40.293,107.802 69.939,107.802 Z" id="Path" stroke="none" fill="#EAEEF9" fill-rule="nonzero"></path>
                        <path d="M95.643,107.595 C87.444,107.856 77.598,107.595 70.623,107.514 C63.729,107.766 53.793,107.856 45.594,107.595 C53.703,102.996 56.583,94.392 56.934,88.749 L84.132,88.749 C84.744,94.302 87.624,102.996 95.643,107.595 Z" id="Path" stroke="none" fill="#D5DDEA" fill-rule="nonzero"></path>
                        <path d="M121.977,16.821 L121.977,87.795 C121.977,89.613 120.582,90.918 119.007,90.918 L22.752,90.918 C21.096,90.918 19.791,89.532 19.791,87.795 L19.791,16.821 C19.791,15.174 21.186,13.689 22.752,13.689 L118.836,13.689 C120.663,13.779 121.977,15.174 121.977,16.821 Z" id="Path" stroke="none" fill="#FFFFFF" fill-rule="nonzero"></path>
                        <path d="M122.427,16.317 L122.427,77.139 L19.827,77.139 L19.827,16.317 C19.827,14.661 21.267,13.239 22.824,13.239 L119.313,13.239 C121.113,13.239 122.427,14.661 122.427,16.317 Z" id="Path" stroke="none" fill="#989FB0" fill-rule="nonzero"></path>
                        <polygon id="Path" stroke="none" fill="#FFFFFF" fill-rule="nonzero" points="118.71 16.839 23.427 16.839 23.427 73.539 118.827 73.539 118.827 16.839"></polygon>
                        <path d="M70.704,86.661 C72.099,86.661 73.233,85.617 73.233,84.141 C73.233,82.755 72.189,81.621 70.704,81.621 C69.309,81.621 68.184,82.665 68.184,84.141 C68.184,85.536 69.228,86.661 70.704,86.661 Z" id="Path" stroke="none" fill="#D6DDE8" fill-rule="nonzero"></path>
                        <line x1="0" y1="107.766" x2="137.754" y2="107.766" id="Path" stroke="#D6DDE8" stroke-width="1.8" fill="none" stroke-linecap="round" stroke-linejoin="round"></line>
                        <path d="M9.693,47.421 C11.7,47.421 13.266,45.864 13.266,43.866 C13.266,41.868 11.7,40.302 9.693,40.302 C7.686,40.302 6.12,41.868 6.12,43.866 C6.12,45.864 7.776,47.421 9.693,47.421 Z" id="Path" stroke="none" fill="#EAEEF9" fill-rule="nonzero"></path>
                        <path d="M6.12,35.874 C7.425,35.874 8.559,34.74 8.559,33.435 C8.559,32.139 7.425,31.005 6.12,31.005 C4.806,31.005 3.672,32.139 3.672,33.435 C3.672,34.83 4.806,35.874 6.12,35.874 Z" id="Path" stroke="none" fill="#EAEEF9" fill-rule="nonzero"></path>
                        <path d="M134.019,56.376 C136.548,56.376 138.555,54.378 138.555,51.858 C138.555,49.338 136.548,47.34 134.019,47.34 C131.49,47.34 129.483,49.338 129.483,51.858 C129.483,54.378 131.49,56.376 134.019,56.376 Z" id="Path" stroke="none" fill="#EAEEF9" fill-rule="nonzero"></path>
                        <g id="Path" stroke="none" fill="none" fill-rule="nonzero">
                            <use fill="black" fill-opacity="1" filter="url(#filter-5)" xlink:href="#path-4"></use>
                            <use fill="url(#linearGradient-3)" xlink:href="#path-4"></use>
                        </g>
                        <path d="M33.66,30.843 C34.686,30.843 35.514,30.015 35.514,28.998 C35.514,27.981 34.686,27.153 33.66,27.153 C32.643,27.153 31.815,27.981 31.815,28.998 C31.815,30.015 32.643,30.843 33.66,30.843 Z" id="Path" stroke="none" fill="#989FB0" fill-rule="nonzero"></path>
                        <path d="M39.105,30.843 C40.122,30.843 40.95,30.015 40.95,28.998 C40.95,27.981 40.122,27.153 39.105,27.153 C38.079,27.153 37.251,27.981 37.251,28.998 C37.251,30.015 38.079,30.843 39.105,30.843 Z" id="Path" stroke="none" fill="#989FB0" fill-rule="nonzero"></path>
                        <path d="M44.649,30.843 C45.675,30.843 46.503,30.015 46.503,28.998 C46.503,27.981 45.675,27.153 44.649,27.153 C43.632,27.153 42.804,27.981 42.804,28.998 C42.804,30.015 43.632,30.843 44.649,30.843 Z" id="Path" stroke="none" fill="#989FB0" fill-rule="nonzero"></path>
                        <path d="M44.001,41.049 L33.552,41.049 C32.904,41.049 32.355,40.509 32.355,40.068 C32.355,39.528 32.904,39.096 33.552,39.096 L44.001,39.096 C44.649,39.096 45.198,39.636 45.198,40.068 C45.198,40.617 44.649,41.049 44.001,41.049 Z" id="Path" stroke="none" fill="url(#linearGradient-6)" fill-rule="nonzero"></path>
                        <path d="M41.499,57.87 L33.66,57.87 C33.012,57.87 32.463,57.33 32.463,56.898 C32.463,56.349 33.012,55.917 33.66,55.917 L41.499,55.917 C42.147,55.917 42.696,56.457 42.696,56.898 C42.588,57.33 42.039,57.87 41.499,57.87 Z" id="Path" stroke="none" fill="url(#linearGradient-7)" fill-rule="nonzero"></path>
                        <path d="M89.703,57.87 L72.639,57.87 C71.991,57.87 71.442,57.33 71.442,56.898 C71.442,56.349 71.991,55.917 72.639,55.917 L89.703,55.917 C90.36,55.917 90.9,56.457 90.9,56.898 C90.792,57.33 90.252,57.87 89.703,57.87 Z" id="Path" stroke="none" fill="#D6DCE8" fill-rule="nonzero"></path>
                        <path d="M67.788,57.87 L46.107,57.87 C45.45,57.87 44.91,57.33 44.91,56.898 C44.91,56.349 45.45,55.917 46.107,55.917 L67.788,55.917 C68.436,55.917 68.985,56.457 68.985,56.898 C68.868,57.33 68.328,57.87 67.788,57.87 Z" id="Path" stroke="none" fill="#D6DCE8" fill-rule="nonzero"></path>
                        <path d="M51.066,63.405 L37.8,63.405 C37.143,63.405 36.603,62.865 36.603,62.433 C36.603,61.884 37.143,61.452 37.8,61.452 L51.066,61.452 C51.723,61.452 52.263,61.992 52.263,62.433 C52.155,62.973 51.615,63.405 51.066,63.405 Z" id="Path" stroke="none" fill="#D6DCE8" fill-rule="nonzero"></path>
                        <path d="M63.414,63.405 L55.917,63.405 C55.26,63.405 54.72,62.865 54.72,62.433 C54.72,61.884 55.26,61.452 55.917,61.452 L63.414,61.452 C64.071,61.452 64.611,61.992 64.611,62.433 C64.503,62.973 63.963,63.405 63.414,63.405 Z" id="Path" stroke="none" fill="#D6DCE8" fill-rule="nonzero"></path>
                        <path d="M48.897,68.832 L33.552,68.832 C32.904,68.832 32.355,68.292 32.355,67.86 C32.355,67.311 32.904,66.879 33.552,66.879 L48.897,66.879 C49.545,66.879 50.094,67.419 50.094,67.86 C50.094,68.4 49.653,68.832 48.897,68.832 Z" id="Path" stroke="none" fill="url(#linearGradient-8)" fill-rule="nonzero"></path>
                        <path d="M59.715,68.832 L53.604,68.832 C52.956,68.832 52.407,68.292 52.407,67.86 C52.407,67.311 52.956,66.879 53.604,66.879 L59.715,66.879 C60.372,66.879 60.912,67.419 60.912,67.86 C60.912,68.4 60.48,68.832 59.715,68.832 Z" id="Path" stroke="none" fill="#D6DCE8" fill-rule="nonzero"></path>
                        <path d="M40.41,74.475 L33.885,74.475 C33.228,74.475 32.688,73.935 32.688,73.503 C32.688,72.963 33.228,72.522 33.885,72.522 L40.41,72.522 C41.058,72.522 41.607,73.071 41.607,73.503 C41.607,74.043 41.166,74.475 40.41,74.475 Z" id="Path" stroke="none" fill="#D6DCE8" fill-rule="nonzero"></path>
                        <path d="M45.954,74.475 L44.541,74.475 C43.893,74.475 43.344,73.935 43.344,73.503 C43.344,72.963 43.893,72.522 44.541,72.522 L45.954,72.522 C46.611,72.522 47.151,73.071 47.151,73.503 C47.151,74.043 46.611,74.475 45.954,74.475 Z" id="Path" stroke="none" fill="#D6DCE8" fill-rule="nonzero"></path>
                        <path d="M36.711,52.443 L33.552,52.443 C32.904,52.443 32.355,51.903 32.355,51.471 C32.355,50.922 32.904,50.49 33.552,50.49 L36.711,50.49 C37.359,50.49 37.908,51.03 37.908,51.471 C37.908,52.011 37.359,52.443 36.711,52.443 Z" id="Path" stroke="none" fill="#D6DCE8" fill-rule="nonzero"></path>
                        <path d="M59.643,52.443 L42.642,52.443 C41.994,52.443 41.445,51.903 41.445,51.471 C41.445,50.922 41.994,50.49 42.642,50.49 L59.643,50.49 C60.3,50.49 60.84,51.03 60.84,51.471 C60.84,52.011 60.3,52.443 59.643,52.443 Z" id="Path" stroke="none" fill="#D6DCE8" fill-rule="nonzero"></path>
                        <path d="M48.897,46.692 L33.552,46.692 C32.904,46.692 32.355,46.152 32.355,45.711 C32.355,45.171 32.904,44.739 33.552,44.739 L48.897,44.739 C49.545,44.739 50.094,45.279 50.094,45.711 C50.094,46.26 49.653,46.692 48.897,46.692 Z" id="Path" stroke="none" fill="#D6DCE8" fill-rule="nonzero"></path>
                        <path d="M68.949,46.692 L53.604,46.692 C52.956,46.692 52.407,46.152 52.407,45.711 C52.407,45.171 52.956,44.739 53.604,44.739 L68.949,44.739 C69.597,44.739 70.146,45.279 70.146,45.711 C70.146,46.26 69.705,46.692 68.949,46.692 Z" id="Path" stroke="none" fill="url(#linearGradient-9)" fill-rule="nonzero"></path>
                        <path d="M79.902,46.692 L73.8,46.692 C73.143,46.692 72.603,46.152 72.603,45.711 C72.603,45.171 73.143,44.739 73.8,44.739 L79.902,44.739 C80.559,44.739 81.099,45.279 81.099,45.711 C81.099,46.26 80.667,46.692 79.902,46.692 Z" id="Path" stroke="none" fill="url(#linearGradient-10)" fill-rule="nonzero"></path>
                        <g id="Path" stroke="none" fill="none" fill-rule="nonzero">
                            <use fill="black" fill-opacity="1" filter="url(#filter-13)" xlink:href="#path-12"></use>
                            <use fill="url(#linearGradient-11)" xlink:href="#path-12"></use>
                        </g>
                        <g id="编组-23" stroke="none" stroke-width="1" fill="none" fill-rule="evenodd" transform="translate(87.300000, 41.400000)" font-family="REEJI-Sun-BlackGBV1.0-Regular, REEJI-Sun-BlackGBV1.0" font-size="10.368" font-weight="700">
                            <text id="Mock" fill="#808DA5">
                                <tspan x="0.565199946" y="9.03168">Mock</tspan>
                            </text>
                        </g>
                    </g>
                </g>
            </g>
        </g>
    </g>
</svg>